ffmpeg version 8.1-essentials_build-www.gyan.dev Copyright (c) 2000-2026 the FFmpeg developers
  built with gcc 15.2.0 (Rev11, Built by MSYS2 project)
  configuration: --enable-gpl --enable-version3 --enable-static --disable-w32threads --disable-autodetect --enable-cairo --enable-fontconfig --enable-iconv --enable-gnutls --enable-libxml2 --enable-gmp --enable-bzlib --enable-lzma --enable-zlib --enable-libsrt --enable-libssh --enable-libzmq --enable-avisynth --enable-sdl2 --enable-libwebp --enable-libx264 --enable-libx265 --enable-libxvid --enable-libaom --enable-libopenjpeg --enable-libvpx --enable-mediafoundation --enable-libass --enable-libfreetype --enable-libfribidi --enable-libharfbuzz --enable-libvidstab --enable-libvmaf --enable-libzimg --enable-amf --enable-cuda-llvm --enable-cuvid --enable-dxva2 --enable-d3d11va --enable-d3d12va --enable-ffnvcodec --enable-libvpl --enable-nvdec --enable-nvenc --enable-vaapi --enable-openal --enable-libgme --enable-libopenmpt --enable-libopencore-amrwb --enable-libmp3lame --enable-libtheora --enable-libvo-amrwbenc --enable-libgsm --enable-libopencore-amrnb --enable-libopus --enable-libspeex --enable-libvorbis --enable-librubberband
  libavutil      60. 26.100 / 60. 26.100
  libavcodec     62. 28.100 / 62. 28.100
  libavformat    62. 12.100 / 62. 12.100
  libavdevice    62.  3.100 / 62.  3.100
  libavfilter    11. 14.100 / 11. 14.100
  libswscale      9.  5.100 /  9.  5.100
  libswresample   6.  3.100 /  6.  3.100
[aist#0:0/pcm_s16le @ 000001feca56cf80] Guessed Channel Layout: stereo
Input #0, dshow, from 'audio=Webcam 1 (NDI Webcam Audio)':
  Duration: N/A, start: 1775742184.538847, bitrate: 1411 kb/s
  Stream #0:0: Audio: pcm_s16le, 44100 Hz, stereo, s16, 1411 kb/s, start 1775742184.538847
Stream mapping:
  Stream #0:0 -> #0:0 (pcm_s16le (native) -> mp3 (libmp3lame))
Press [q] to stop, [?] for help
Output #0, mp3, to 'pipe:':
  Metadata:
    TSSE            : Lavf62.12.100
  Stream #0:0: Audio: mp3, 44100 Hz, stereo, s16p, 128 kb/s
    Metadata:
      encoder         : Lavc62.28.100 libmp3lame
size=       6KiB time=00:00:00.39 bitrate= 128.6kbits/s speed=0.768x elapsed=0:00:00.51    size=      20KiB time=00:00:01.31 bitrate= 127.7kbits/s speed=1.28x elapsed=0:00:01.02    size=      29KiB time=00:00:01.88 bitrate= 128.0kbits/s speed=1.22x elapsed=0:00:01.54    size=      37KiB time=00:00:02.39 bitrate= 127.2kbits/s speed=1.16x elapsed=0:00:02.05    size=      45KiB time=00:00:02.87 bitrate= 128.2kbits/s speed=1.12x elapsed=0:00:02.57    size=      53KiB time=00:00:03.38 bitrate= 127.5kbits/s speed= 1.1x elapsed=0:00:03.08    size=      61KiB time=00:00:03.89 bitrate= 128.1kbits/s speed=1.08x elapsed=0:00:03.60    size=      69KiB time=00:00:04.38 bitrate= 128.1kbits/s speed=1.06x elapsed=0:00:04.11    size=      76KiB time=00:00:04.88 bitrate= 128.0kbits/s speed=1.05x elapsed=0:00:04.63    size=      84KiB time=00:00:05.38 bitrate= 127.9kbits/s speed=1.05x elapsed=0:00:05.15    size=      92KiB time=00:00:05.89 bitrate= 127.6kbits/s speed=1.04x elapsed=0:00:05.66    size=     100KiB time=00:00:06.36 bitrate= 128.1kbits/s speed=1.03x elapsed=0:00:06.18    size=     107KiB time=00:00:06.87 bitrate= 128.0kbits/s speed=1.03x elapsed=0:00:06.69    size=     116KiB time=00:00:07.39 bitrate= 128.1kbits/s speed=1.02x elapsed=0:00:07.21    size=     123KiB time=00:00:07.90 bitrate= 127.7kbits/s speed=1.02x elapsed=0:00:07.72    size=     131KiB time=00:00:08.38 bitrate= 128.1kbits/s speed=1.02x elapsed=0:00:08.24    size=     139KiB time=00:00:08.88 bitrate= 128.0kbits/s speed=1.01x elapsed=0:00:08.75    size=     147KiB time=00:00:09.38 bitrate= 128.0kbits/s speed=1.01x elapsed=0:00:09.27    size=     154KiB time=00:00:09.89 bitrate= 127.8kbits/s speed=1.01x elapsed=0:00:09.79    size=     162KiB time=00:00:10.36 bitrate= 128.1kbits/s speed=1.01x elapsed=0:00:10.30    size=     170KiB time=00:00:10.89 bitrate= 128.0kbits/s speed=1.01x elapsed=0:00:10.82    size=     178KiB time=00:00:11.39 bitrate= 128.0kbits/s speed=   1x elapsed=0:00:11.33    size=     186KiB time=00:00:11.90 bitrate= 127.8kbits/s speed=   1x elapsed=0:00:11.85    size=     194KiB time=00:00:12.38 bitrate= 128.0kbits/s speed=   1x elapsed=0:00:12.36    size=     201KiB time=00:00:12.87 bitrate= 128.1kbits/s speed=0.999x elapsed=0:00:12.88    size=     209KiB time=00:00:13.37 bitrate= 128.0kbits/s speed=0.998x elapsed=0:00:13.40    size=     217KiB time=00:00:13.88 bitrate= 127.9kbits/s speed=0.998x elapsed=0:00:13.91    size=     225KiB time=00:00:14.39 bitrate= 128.0kbits/s speed=0.997x elapsed=0:00:14.43    size=     233KiB time=00:00:14.89 bitrate= 128.0kbits/s speed=0.996x elapsed=0:00:14.94    size=     240KiB time=00:00:15.39 bitrate= 128.0kbits/s speed=0.995x elapsed=0:00:15.46    size=     248KiB time=00:00:15.88 bitrate= 128.0kbits/s speed=0.994x elapsed=0:00:15.97    size=     256KiB time=00:00:16.37 bitrate= 128.0kbits/s speed=0.993x elapsed=0:00:16.49    size=     264KiB time=00:00:16.88 bitrate= 127.9kbits/s speed=0.993x elapsed=0:00:17.00    size=     280KiB time=00:00:17.89 bitrate= 128.0kbits/s speed=1.02x elapsed=0:00:17.52    size=     287KiB time=00:00:18.41 bitrate= 127.9kbits/s speed=1.02x elapsed=0:00:18.04    size=     295KiB time=00:00:18.88 bitrate= 128.0kbits/s speed=1.02x elapsed=0:00:18.55    size=     303KiB time=00:00:19.38 bitrate= 128.0kbits/s speed=1.02x elapsed=0:00:19.07    size=     311KiB time=00:00:19.88 bitrate= 128.0kbits/s speed=1.02x elapsed=0:00:19.58    size=     318KiB time=00:00:20.37 bitrate= 128.0kbits/s speed=1.01x elapsed=0:00:20.10    size=     326KiB time=00:00:20.87 bitrate= 128.0kbits/s speed=1.01x elapsed=0:00:20.61    size=     334KiB time=00:00:21.41 bitrate= 127.9kbits/s speed=1.01x elapsed=0:00:21.13    size=     342KiB time=00:00:21.89 bitrate= 128.0kbits/s speed=1.01x elapsed=0:00:21.65    size=     350KiB time=00:00:22.39 bitrate= 128.0kbits/s speed=1.01x elapsed=0:00:22.16    size=     358KiB time=00:00:22.88 bitrate= 128.0kbits/s speed=1.01x elapsed=0:00:22.68    size=     365KiB time=00:00:23.39 bitrate= 127.9kbits/s speed=1.01x elapsed=0:00:23.19    size=     373KiB time=00:00:23.87 bitrate= 128.0kbits/s speed=1.01x elapsed=0:00:23.71    size=     381KiB time=00:00:24.37 bitrate= 128.0kbits/s speed=1.01x elapsed=0:00:24.22    size=     389KiB time=00:00:24.89 bitrate= 128.0kbits/s speed=1.01x elapsed=0:00:24.74    size=     397KiB time=00:00:25.39 bitrate= 128.0kbits/s speed=1.01x elapsed=0:00:25.25    size=     405KiB time=00:00:25.90 bitrate= 127.9kbits/s speed=   1x elapsed=0:00:25.77    size=     412KiB time=00:00:26.40 bitrate= 127.9kbits/s speed=   1x elapsed=0:00:26.29    size=     420KiB time=00:00:26.90 bitrate= 127.9kbits/s speed=   1x elapsed=0:00:26.80    size=     428KiB time=00:00:27.37 bitrate= 128.0kbits/s speed=   1x elapsed=0:00:27.32    size=     436KiB time=00:00:27.89 bitrate= 127.9kbits/s speed=   1x elapsed=0:00:27.83    size=     444KiB time=00:00:28.39 bitrate= 128.0kbits/s speed=   1x elapsed=0:00:28.35    size=     451KiB time=00:00:28.89 bitrate= 128.0kbits/s speed=   1x elapsed=0:00:28.86    size=     459KiB time=00:00:29.40 bitrate= 127.9kbits/s speed=   1x elapsed=0:00:29.38    size=     467KiB time=00:00:29.88 bitrate= 128.0kbits/s speed=0.999x elapsed=0:00:29.90    size=     475KiB time=00:00:30.40 bitrate= 127.9kbits/s speed=   1x elapsed=0:00:30.41    size=     482KiB time=00:00:30.87 bitrate= 128.0kbits/s speed=0.998x elapsed=0:00:30.93    size=     490KiB time=00:00:31.37 bitrate= 128.0kbits/s speed=0.998x elapsed=0:00:31.44    size=     498KiB time=00:00:31.91 bitrate= 127.9kbits/s speed=0.998x elapsed=0:00:31.96    size=     506KiB time=00:00:32.39 bitrate= 128.0kbits/s speed=0.997x elapsed=0:00:32.47    size=     514KiB time=00:00:32.89 bitrate= 128.0kbits/s speed=0.997x elapsed=0:00:32.99    size=     529KiB time=00:00:33.88 bitrate= 128.0kbits/s speed=1.01x elapsed=0:00:33.50    size=     537KiB time=00:00:34.39 bitrate= 127.9kbits/s speed=1.01x elapsed=0:00:34.02    size=     545KiB time=00:00:34.87 bitrate= 128.0kbits/s speed=1.01x elapsed=0:00:34.54    size=     553KiB time=00:00:35.36 bitrate= 128.0kbits/s speed=1.01x elapsed=0:00:35.05    size=     561KiB time=00:00:35.89 bitrate= 128.0kbits/s speed=1.01x elapsed=0:00:35.57    size=     569KiB time=00:00:36.40 bitrate= 127.9kbits/s speed=1.01x elapsed=0:00:36.08    size=     576KiB time=00:00:36.88 bitrate= 128.0kbits/s speed=1.01x elapsed=0:00:36.60    size=     584KiB time=00:00:37.38 bitrate= 128.0kbits/s speed=1.01x elapsed=0:00:37.12    size=     592KiB time=00:00:37.89 bitrate= 128.0kbits/s speed=1.01x elapsed=0:00:37.63    size=     600KiB time=00:00:38.37 bitrate= 128.0kbits/s speed=1.01x elapsed=0:00:38.14    size=     607KiB time=00:00:38.89 bitrate= 127.9kbits/s speed=1.01x elapsed=0:00:38.66    size=     616KiB time=00:00:39.39 bitrate= 128.0kbits/s speed=1.01x elapsed=0:00:39.18    size=     623KiB time=00:00:39.90 bitrate= 128.0kbits/s speed=1.01x elapsed=0:00:39.69    size=     631KiB time=00:00:40.38 bitrate= 128.0kbits/s speed=   1x elapsed=0:00:40.21    size=     639KiB time=00:00:40.88 bitrate= 128.0kbits/s speed=   1x elapsed=0:00:40.72    size=     647KiB time=00:00:41.38 bitrate= 128.0kbits/s speed=   1x elapsed=0:00:41.24    size=     654KiB time=00:00:41.87 bitrate= 128.0kbits/s speed=   1x elapsed=0:00:41.75    size=     662KiB time=00:00:42.37 bitrate= 128.0kbits/s speed=   1x elapsed=0:00:42.27    size=     670KiB time=00:00:42.91 bitrate= 128.0kbits/s speed=   1x elapsed=0:00:42.79    size=     678KiB time=00:00:43.38 bitrate= 128.0kbits/s speed=   1x elapsed=0:00:43.30    size=     686KiB time=00:00:43.88 bitrate= 128.0kbits/s speed=   1x elapsed=0:00:43.82    size=     694KiB time=00:00:44.38 bitrate= 128.0kbits/s speed=   1x elapsed=0:00:44.33    size=     701KiB time=00:00:44.87 bitrate= 128.0kbits/s speed=   1x elapsed=0:00:44.85    size=     709KiB time=00:00:45.39 bitrate= 128.0kbits/s speed=   1x elapsed=0:00:45.36    size=     717KiB time=00:00:45.87 bitrate= 128.0kbits/s speed=   1x elapsed=0:00:45.88    size=     725KiB time=00:00:46.39 bitrate= 128.0kbits/s speed=   1x elapsed=0:00:46.40    size=     733KiB time=00:00:46.89 bitrate= 128.0kbits/s speed=0.999x elapsed=0:00:46.91    size=     740KiB time=00:00:47.40 bitrate= 128.0kbits/s speed=0.999x elapsed=0:00:47.43    size=     748KiB time=00:00:47.88 bitrate= 128.0kbits/s speed=0.999x elapsed=0:00:47.94    size=     756KiB time=00:00:48.38 bitrate= 128.0kbits/s speed=0.998x elapsed=0:00:48.47    size=     764KiB time=00:00:48.87 bitrate= 128.0kbits/s speed=0.998x elapsed=0:00:48.99    size=     771KiB time=00:00:49.37 bitrate= 128.0kbits/s speed=0.997x elapsed=0:00:49.51    size=     787KiB time=00:00:50.39 bitrate= 128.0kbits/s speed=1.01x elapsed=0:00:50.02    size=     795KiB time=00:00:50.88 bitrate= 128.0kbits/s speed=1.01x elapsed=0:00:50.54    size=     803KiB time=00:00:51.38 bitrate= 128.0kbits/s speed=1.01x elapsed=0:00:51.05    size=     811KiB time=00:00:51.88 bitrate= 128.0kbits/s speed=1.01x elapsed=0:00:51.57    size=     818KiB time=00:00:52.37 bitrate= 128.0kbits/s speed=1.01x elapsed=0:00:52.08    size=     826KiB time=00:00:52.87 bitrate= 128.0kbits/s speed=1.01x elapsed=0:00:52.60    size=     834KiB time=00:00:53.40 bitrate= 128.0kbits/s speed=1.01x elapsed=0:00:53.12    size=     842KiB time=00:00:53.88 bitrate= 128.0kbits/s speed=   1x elapsed=0:00:53.63    size=     850KiB time=00:00:54.38 bitrate= 128.0kbits/s speed=   1x elapsed=0:00:54.15    size=     858KiB time=00:00:54.88 bitrate= 128.0kbits/s speed=   1x elapsed=0:00:54.66    size=     865KiB time=00:00:55.38 bitrate= 128.0kbits/s speed=   1x elapsed=0:00:55.18    size=     873KiB time=00:00:55.87 bitrate= 128.0kbits/s speed=   1x elapsed=0:00:55.69    size=     881KiB time=00:00:56.37 bitrate= 128.0kbits/s speed=   1x elapsed=0:00:56.21    size=     889KiB time=00:00:56.90 bitrate= 128.0kbits/s speed=   1x elapsed=0:00:56.72    size=     897KiB time=00:00:57.40 bitrate= 128.0kbits/s speed=   1x elapsed=0:00:57.24    size=     905KiB time=00:00:57.89 bitrate= 128.0kbits/s speed=   1x elapsed=0:00:57.76    size=     912KiB time=00:00:58.38 bitrate= 128.0kbits/s speed=   1x elapsed=0:00:58.27    size=     920KiB time=00:00:58.88 bitrate= 128.0kbits/s speed=   1x elapsed=0:00:58.79    size=     928KiB time=00:00:59.37 bitrate= 128.0kbits/s speed=   1x elapsed=0:00:59.30    size=     936KiB time=00:00:59.87 bitrate= 128.0kbits/s speed=   1x elapsed=0:00:59.82    size=     944KiB time=00:01:00.39 bitrate= 128.0kbits/s speed=   1x elapsed=0:01:00.33    size=     951KiB time=00:01:00.89 bitrate= 128.0kbits/s speed=   1x elapsed=0:01:00.85    size=     959KiB time=00:01:01.38 bitrate= 128.0kbits/s speed=   1x elapsed=0:01:01.36    size=     967KiB time=00:01:01.88 bitrate= 128.0kbits/s speed=   1x elapsed=0:01:01.88    size=     975KiB time=00:01:02.38 bitrate= 128.0kbits/s speed=   1x elapsed=0:01:02.40    size=     982KiB time=00:01:02.87 bitrate= 128.0kbits/s speed=0.999x elapsed=0:01:02.91    size=     990KiB time=00:01:03.37 bitrate= 128.0kbits/s speed=0.999x elapsed=0:01:03.43    size=     998KiB time=00:01:03.91 bitrate= 128.0kbits/s speed=0.999x elapsed=0:01:03.94    size=    1006KiB time=00:01:04.39 bitrate= 128.0kbits/s speed=0.999x elapsed=0:01:04.46    size=    1014KiB time=00:01:04.88 bitrate= 128.0kbits/s speed=0.999x elapsed=0:01:04.97    size=    1022KiB time=00:01:05.38 bitrate= 128.0kbits/s speed=0.998x elapsed=0:01:05.49    size=    1029KiB time=00:01:05.88 bitrate= 128.0kbits/s speed=0.998x elapsed=0:01:06.00    size=    1040KiB time=00:01:06.55 bitrate= 128.0kbits/s speed=   1x elapsed=0:01:06.52    size=    1053KiB time=00:01:07.36 bitrate= 128.0kbits/s speed=   1x elapsed=0:01:07.04    size=    1061KiB time=00:01:07.89 bitrate= 128.0kbits/s speed=1.01x elapsed=0:01:07.55    size=    1069KiB time=00:01:08.39 bitrate= 128.0kbits/s speed=   1x elapsed=0:01:08.07    size=    1076KiB time=00:01:08.90 bitrate= 128.0kbits/s speed=   1x elapsed=0:01:08.58    size=    1084KiB time=00:01:09.38 bitrate= 128.0kbits/s speed=   1x elapsed=0:01:09.10    size=    1092KiB time=00:01:09.88 bitrate= 128.0kbits/s speed=   1x elapsed=0:01:09.61    size=    1100KiB time=00:01:10.37 bitrate= 128.0kbits/s speed=   1x elapsed=0:01:10.13    size=    1107KiB time=00:01:10.86 bitrate= 128.0kbits/s speed=   1x elapsed=0:01:10.65    size=    1116KiB time=00:01:11.39 bitrate= 128.0kbits/s speed=   1x elapsed=0:01:11.16    size=    1123KiB time=00:01:11.89 bitrate= 128.0kbits/s speed=   1x elapsed=0:01:11.68    size=    1131KiB time=00:01:12.38 bitrate= 128.0kbits/s speed=   1x elapsed=0:01:12.19    size=    1139KiB time=00:01:12.88 bitrate= 128.0kbits/s speed=   1x elapsed=0:01:12.71    size=    1147KiB time=00:01:13.38 bitrate= 128.0kbits/s speed=   1x elapsed=0:01:13.22    size=    1154KiB time=00:01:13.87 bitrate= 128.0kbits/s speed=   1x elapsed=0:01:13.74    size=    1162KiB time=00:01:14.37 bitrate= 128.0kbits/s speed=   1x elapsed=0:01:14.26    size=    1170KiB time=00:01:14.91 bitrate= 128.0kbits/s speed=   1x elapsed=0:01:14.77    size=    1178KiB time=00:01:15.39 bitrate= 128.0kbits/s speed=   1x elapsed=0:01:15.29    size=    1186KiB time=00:01:15.89 bitrate= 128.0kbits/s speed=   1x elapsed=0:01:15.80    size=    1194KiB time=00:01:16.38 bitrate= 128.0kbits/s speed=   1x elapsed=0:01:16.32    size=    1201KiB time=00:01:16.87 bitrate= 128.0kbits/s speed=   1x elapsed=0:01:16.83    size=    1209KiB time=00:01:17.37 bitrate= 128.0kbits/s speed=   1x elapsed=0:01:17.35    size=    1217KiB time=00:01:17.89 bitrate= 128.0kbits/s speed=   1x elapsed=0:01:17.86    size=    1225KiB time=00:01:18.39 bitrate= 128.0kbits/s speed=   1x elapsed=0:01:18.38    size=    1233KiB time=00:01:18.91 bitrate= 128.0kbits/s speed=   1x elapsed=0:01:18.90    size=    1240KiB time=00:01:19.38 bitrate= 128.0kbits/s speed=   1x elapsed=0:01:19.41    size=    1248KiB time=00:01:19.88 bitrate= 128.0kbits/s speed=0.999x elapsed=0:01:19.93    size=    1256KiB time=00:01:20.38 bitrate= 128.0kbits/s speed=0.999x elapsed=0:01:20.44    size=    1264KiB time=00:01:20.89 bitrate= 128.0kbits/s speed=0.999x elapsed=0:01:20.96    size=    1271KiB time=00:01:21.39 bitrate= 128.0kbits/s speed=0.999x elapsed=0:01:21.47    size=    1280KiB time=00:01:21.89 bitrate= 128.0kbits/s speed=0.999x elapsed=0:01:21.99    size=    1291KiB time=00:01:22.64 bitrate= 128.0kbits/s speed=   1x elapsed=0:01:22.51    size=    1298KiB time=00:01:23.11 bitrate= 128.0kbits/s speed=   1x elapsed=0:01:23.02    size=    1311KiB time=00:01:23.87 bitrate= 128.0kbits/s speed=   1x elapsed=0:01:23.54    size=    1318KiB time=00:01:24.38 bitrate= 128.0kbits/s speed=   1x elapsed=0:01:24.05    size=    1326KiB time=00:01:24.87 bitrate= 128.0kbits/s speed=   1x elapsed=0:01:24.57    size=    1334KiB time=00:01:25.40 bitrate= 128.0kbits/s speed=   1x elapsed=0:01:25.08    size=    1342KiB time=00:01:25.89 bitrate= 128.0kbits/s speed=   1x elapsed=0:01:25.60    size=    1350KiB time=00:01:26.40 bitrate= 128.0kbits/s speed=   1x elapsed=0:01:26.11    size=    1358KiB time=00:01:26.88 bitrate= 128.0kbits/s speed=   1x elapsed=0:01:26.63    size=    1365KiB time=00:01:27.37 bitrate= 128.0kbits/s speed=   1x elapsed=0:01:27.15    size=    1373KiB time=00:01:27.89 bitrate= 128.0kbits/s speed=   1x elapsed=0:01:27.66    size=    1381KiB time=00:01:28.39 bitrate= 128.0kbits/s speed=   1x elapsed=0:01:28.18    size=    1389KiB time=00:01:28.89 bitrate= 128.0kbits/s speed=   1x elapsed=0:01:28.69    size=    1397KiB time=00:01:29.39 bitrate= 128.0kbits/s speed=   1x elapsed=0:01:29.21    size=    1405KiB time=00:01:29.88 bitrate= 128.0kbits/s speed=   1x elapsed=0:01:29.72    size=    1412KiB time=00:01:30.38 bitrate= 128.0kbits/s speed=   1x elapsed=0:01:30.24    size=    1420KiB time=00:01:30.88 bitrate= 128.0kbits/s speed=   1x elapsed=0:01:30.76    size=    1428KiB time=00:01:31.37 bitrate= 128.0kbits/s speed=   1x elapsed=0:01:31.27    size=    1436KiB time=00:01:31.87 bitrate= 128.0kbits/s speed=   1x elapsed=0:01:31.79    size=    1444KiB time=00:01:32.39 bitrate= 128.0kbits/s speed=   1x elapsed=0:01:32.30    size=    1451KiB time=00:01:32.88 bitrate= 128.0kbits/s speed=   1x elapsed=0:01:32.82    size=    1459KiB time=00:01:33.38 bitrate= 128.0kbits/s speed=   1x elapsed=0:01:33.33    size=    1467KiB time=00:01:33.88 bitrate= 128.0kbits/s speed=   1x elapsed=0:01:33.85    size=    1475KiB time=00:01:34.38 bitrate= 128.0kbits/s speed=   1x elapsed=0:01:34.36    size=    1482KiB time=00:01:34.87 bitrate= 128.0kbits/s speed=   1x elapsed=0:01:34.88    size=    1490KiB time=00:01:35.37 bitrate= 128.0kbits/s speed=   1x elapsed=0:01:35.40    size=    1498KiB time=00:01:35.91 bitrate= 128.0kbits/s speed=   1x elapsed=0:01:35.91    size=    1506KiB time=00:01:36.39 bitrate= 128.0kbits/s speed=   1x elapsed=0:01:36.43    size=    1514KiB time=00:01:36.88 bitrate= 128.0kbits/s speed=0.999x elapsed=0:01:36.94    size=    1522KiB time=00:01:37.38 bitrate= 128.0kbits/s speed=0.999x elapsed=0:01:37.46    size=    1529KiB time=00:01:37.90 bitrate= 128.0kbits/s speed=0.999x elapsed=0:01:37.97    size=    1537KiB time=00:01:38.37 bitrate= 128.0kbits/s speed=0.999x elapsed=0:01:38.49    size=    1553KiB time=00:01:39.36 bitrate= 128.0kbits/s speed=   1x elapsed=0:01:39.00    size=    1561KiB time=00:01:39.89 bitrate= 128.0kbits/s speed=   1x elapsed=0:01:39.52    size=    1569KiB time=00:01:40.40 bitrate= 128.0kbits/s speed=   1x elapsed=0:01:40.04    size=    1576KiB time=00:01:40.88 bitrate= 128.0kbits/s speed=   1x elapsed=0:01:40.55    size=    1584KiB time=00:01:41.37 bitrate= 128.0kbits/s speed=   1x elapsed=0:01:41.07    size=    1592KiB time=00:01:41.87 bitrate= 128.0kbits/s speed=   1x elapsed=0:01:41.58    size=    1600KiB time=00:01:42.37 bitrate= 128.0kbits/s speed=   1x elapsed=0:01:42.10    size=    1607KiB time=00:01:42.87 bitrate= 128.0kbits/s speed=   1x elapsed=0:01:42.61    size=    1616KiB time=00:01:43.41 bitrate= 128.0kbits/s speed=   1x elapsed=0:01:43.13    size=    1623KiB time=00:01:43.89 bitrate= 128.0kbits/s speed=   1x elapsed=0:01:43.64    size=    1631KiB time=00:01:44.40 bitrate= 128.0kbits/s speed=   1x elapsed=0:01:44.16    size=    1639KiB time=00:01:44.88 bitrate= 128.0kbits/s speed=   1x elapsed=0:01:44.68    size=    1647KiB time=00:01:45.37 bitrate= 128.0kbits/s speed=   1x elapsed=0:01:45.19    size=    1654KiB time=00:01:45.86 bitrate= 128.0kbits/s speed=   1x elapsed=0:01:45.71    size=    1662KiB time=00:01:46.37 bitrate= 128.0kbits/s speed=   1x elapsed=0:01:46.22    size=    1670KiB time=00:01:46.89 bitrate= 128.0kbits/s speed=   1x elapsed=0:01:46.74    size=    1678KiB time=00:01:47.39 bitrate= 128.0kbits/s speed=   1x elapsed=0:01:47.25    size=    1686KiB time=00:01:47.88 bitrate= 128.0kbits/s speed=   1x elapsed=0:01:47.77    size=    1694KiB time=00:01:48.37 bitrate= 128.0kbits/s speed=   1x elapsed=0:01:48.29    size=    1701KiB time=00:01:48.88 bitrate= 128.0kbits/s speed=   1x elapsed=0:01:48.80    size=    1709KiB time=00:01:49.37 bitrate= 128.0kbits/s speed=   1x elapsed=0:01:49.32    size=    1717KiB time=00:01:49.87 bitrate= 128.0kbits/s speed=   1x elapsed=0:01:49.83    size=    1725KiB time=00:01:50.41 bitrate= 128.0kbits/s speed=   1x elapsed=0:01:50.35    size=    1733KiB time=00:01:50.89 bitrate= 128.0kbits/s speed=   1x elapsed=0:01:50.86    size=    1740KiB time=00:01:51.38 bitrate= 128.0kbits/s speed=   1x elapsed=0:01:51.38    size=    1748KiB time=00:01:51.90 bitrate= 128.0kbits/s speed=   1x elapsed=0:01:51.90    size=    1756KiB time=00:01:52.37 bitrate= 128.0kbits/s speed=   1x elapsed=0:01:52.41    size=    1764KiB time=00:01:52.89 bitrate= 128.0kbits/s speed=   1x elapsed=0:01:52.93    size=    1771KiB time=00:01:53.36 bitrate= 128.0kbits/s speed=0.999x elapsed=0:01:53.44    size=    1780KiB time=00:01:53.89 bitrate= 128.0kbits/s speed=0.999x elapsed=0:01:53.96    size=    1787KiB time=00:01:54.39 bitrate= 128.0kbits/s speed=0.999x elapsed=0:01:54.47    size=    1795KiB time=00:01:54.88 bitrate= 128.0kbits/s speed=0.999x elapsed=0:01:54.99    size=    1810KiB time=00:01:55.85 bitrate= 128.0kbits/s speed=   1x elapsed=0:01:55.50    size=    1817KiB time=00:01:56.29 bitrate= 128.0kbits/s speed=   1x elapsed=0:01:56.02    size=    1826KiB time=00:01:56.88 bitrate= 128.0kbits/s speed=   1x elapsed=0:01:56.54    size=    1834KiB time=00:01:57.39 bitrate= 128.0kbits/s speed=   1x elapsed=0:01:57.05    size=    1842KiB time=00:01:57.90 bitrate= 128.0kbits/s speed=   1x elapsed=0:01:57.57    size=    1850KiB time=00:01:58.38 bitrate= 128.0kbits/s speed=   1x elapsed=0:01:58.08    size=    1858KiB time=00:01:58.90 bitrate= 128.0kbits/s speed=   1x elapsed=0:01:58.60    size=    1865KiB time=00:01:59.38 bitrate= 128.0kbits/s speed=   1x elapsed=0:01:59.11    size=    1873KiB time=00:01:59.88 bitrate= 128.0kbits/s speed=   1x elapsed=0:01:59.63    size=    1881KiB time=00:02:00.39 bitrate= 128.0kbits/s speed=   1x elapsed=0:02:00.15    size=    1889KiB time=00:02:00.89 bitrate= 128.0kbits/s speed=   1x elapsed=0:02:00.66    size=    1897KiB time=00:02:01.38 bitrate= 128.0kbits/s speed=   1x elapsed=0:02:01.18    size=    1905KiB time=00:02:01.88 bitrate= 128.0kbits/s speed=   1x elapsed=0:02:01.69    size=    1912KiB time=00:02:02.40 bitrate= 128.0kbits/s speed=   1x elapsed=0:02:02.21    size=    1920KiB time=00:02:02.90 bitrate= 128.0kbits/s speed=   1x elapsed=0:02:02.72    size=    1928KiB time=00:02:03.38 bitrate= 128.0kbits/s speed=   1x elapsed=0:02:03.24    size=    1936KiB time=00:02:03.90 bitrate= 128.0kbits/s speed=   1x elapsed=0:02:03.75    size=    1944KiB time=00:02:04.41 bitrate= 128.0kbits/s speed=   1x elapsed=0:02:04.27    size=    1951KiB time=00:02:04.89 bitrate= 128.0kbits/s speed=   1x elapsed=0:02:04.79    size=    1959KiB time=00:02:05.39 bitrate= 128.0kbits/s speed=   1x elapsed=0:02:05.30    size=    1967KiB time=00:02:05.88 bitrate= 128.0kbits/s speed=   1x elapsed=0:02:05.82    size=    1975KiB time=00:02:06.37 bitrate= 128.0kbits/s speed=   1x elapsed=0:02:06.33    size=    1982KiB time=00:02:06.87 bitrate= 128.0kbits/s speed=   1x elapsed=0:02:06.85    size=    1990KiB time=00:02:07.38 bitrate= 128.0kbits/s speed=   1x elapsed=0:02:07.36    size=    1998KiB time=00:02:07.91 bitrate= 128.0kbits/s speed=   1x elapsed=0:02:07.88    size=    2006KiB time=00:02:08.39 bitrate= 128.0kbits/s speed=   1x elapsed=0:02:08.40    size=    2014KiB time=00:02:08.88 bitrate= 128.0kbits/s speed=   1x elapsed=0:02:08.91    size=    2022KiB time=00:02:09.40 bitrate= 128.0kbits/s speed=   1x elapsed=0:02:09.43    size=    2029KiB time=00:02:09.90 bitrate= 128.0kbits/s speed=   1x elapsed=0:02:09.94    size=    2037KiB time=00:02:10.39 bitrate= 128.0kbits/s speed=0.999x elapsed=0:02:10.46    size=    2045KiB time=00:02:10.86 bitrate= 128.0kbits/s speed=0.999x elapsed=0:02:10.97    size=    2053KiB time=00:02:11.39 bitrate= 128.0kbits/s speed=0.999x elapsed=0:02:11.49    size=    2062KiB time=00:02:11.94 bitrate= 128.0kbits/s speed=   1x elapsed=0:02:12.01    size=    2076KiB time=00:02:12.88 bitrate= 128.0kbits/s speed=   1x elapsed=0:02:12.52    size=    2084KiB time=00:02:13.38 bitrate= 128.0kbits/s speed=   1x elapsed=0:02:13.04    size=    2092KiB time=00:02:13.89 bitrate= 128.0kbits/s speed=   1x elapsed=0:02:13.55    size=    2100KiB time=00:02:14.37 bitrate= 128.0kbits/s speed=   1x elapsed=0:02:14.07    size=    2107KiB time=00:02:14.87 bitrate= 128.0kbits/s speed=   1x elapsed=0:02:14.58    size=    2116KiB time=00:02:15.39 bitrate= 128.0kbits/s speed=   1x elapsed=0:02:15.10    size=    2123KiB time=00:02:15.88 bitrate= 128.0kbits/s speed=   1x elapsed=0:02:15.61    size=    2131KiB time=00:02:16.38 bitrate= 128.0kbits/s speed=   1x elapsed=0:02:16.13    size=    2139KiB time=00:02:16.90 bitrate= 128.0kbits/s speed=   1x elapsed=0:02:16.65    size=    2147KiB time=00:02:17.39 bitrate= 128.0kbits/s speed=   1x elapsed=0:02:17.16    size=    2154KiB time=00:02:17.87 bitrate= 128.0kbits/s speed=   1x elapsed=0:02:17.68    size=    2162KiB time=00:02:18.37 bitrate= 128.0kbits/s speed=   1x elapsed=0:02:18.19    size=    2170KiB time=00:02:18.89 bitrate= 128.0kbits/s speed=   1x elapsed=0:02:18.71    size=    2178KiB time=00:02:19.38 bitrate= 128.0kbits/s speed=   1x elapsed=0:02:19.23    size=    2186KiB time=00:02:19.90 bitrate= 128.0kbits/s speed=   1x elapsed=0:02:19.74    size=    2194KiB time=00:02:20.37 bitrate= 128.0kbits/s speed=   1x elapsed=0:02:20.26    size=    2201KiB time=00:02:20.88 bitrate= 128.0kbits/s speed=   1x elapsed=0:02:20.77    size=    2209KiB time=00:02:21.37 bitrate= 128.0kbits/s speed=   1x elapsed=0:02:21.29    size=    2217KiB time=00:02:21.87 bitrate= 128.0kbits/s speed=   1x elapsed=0:02:21.80    size=    2225KiB time=00:02:22.39 bitrate= 128.0kbits/s speed=   1x elapsed=0:02:22.32    size=    2233KiB time=00:02:22.90 bitrate= 128.0kbits/s speed=   1x elapsed=0:02:22.83    size=    2240KiB time=00:02:23.38 bitrate= 128.0kbits/s speed=   1x elapsed=0:02:23.35    size=    2248KiB time=00:02:23.88 bitrate= 128.0kbits/s speed=   1x elapsed=0:02:23.87    size=    2256KiB time=00:02:24.37 bitrate= 128.0kbits/s speed=   1x elapsed=0:02:24.38    size=    2264KiB time=00:02:24.87 bitrate= 128.0kbits/s speed=   1x elapsed=0:02:24.89    size=    2271KiB time=00:02:25.36 bitrate= 128.0kbits/s speed=   1x elapsed=0:02:25.41    size=    2280KiB time=00:02:25.91 bitrate= 128.0kbits/s speed=   1x elapsed=0:02:25.93    size=    2287KiB time=00:02:26.39 bitrate= 128.0kbits/s speed=   1x elapsed=0:02:26.44    size=    2295KiB time=00:02:26.88 bitrate= 128.0kbits/s speed=0.999x elapsed=0:02:26.96    size=    2303KiB time=00:02:27.40 bitrate= 128.0kbits/s speed=0.999x elapsed=0:02:27.47    size=    2311KiB time=00:02:27.90 bitrate= 128.0kbits/s speed=0.999x elapsed=0:02:27.99    size=    2326KiB time=00:02:28.87 bitrate= 128.0kbits/s speed=   1x elapsed=0:02:28.50    size=    2331KiB time=00:02:29.20 bitrate= 128.0kbits/s speed=   1x elapsed=0:02:29.02    size=    2342KiB time=00:02:29.89 bitrate= 128.0kbits/s speed=   1x elapsed=0:02:29.54    size=    2350KiB time=00:02:30.40 bitrate= 128.0kbits/s speed=   1x elapsed=0:02:30.05    size=    2358KiB time=00:02:30.88 bitrate= 128.0kbits/s speed=   1x elapsed=0:02:30.57    size=    2365KiB time=00:02:31.37 bitrate= 128.0kbits/s speed=   1x elapsed=0:02:31.08    size=    2373KiB time=00:02:31.88 bitrate= 128.0kbits/s speed=   1x elapsed=0:02:31.60    size=    2381KiB time=00:02:32.37 bitrate= 128.0kbits/s speed=   1x elapsed=0:02:32.12    size=    2389KiB time=00:02:32.89 bitrate= 128.0kbits/s speed=   1x elapsed=0:02:32.63    size=    2397KiB time=00:02:33.38 bitrate= 128.0kbits/s speed=   1x elapsed=0:02:33.15    size=    2405KiB time=00:02:33.89 bitrate= 128.0kbits/s speed=   1x elapsed=0:02:33.66    size=    2412KiB time=00:02:34.38 bitrate= 128.0kbits/s speed=   1x elapsed=0:02:34.18    size=    2420KiB time=00:02:34.88 bitrate= 128.0kbits/s speed=   1x elapsed=0:02:34.69    size=    2428KiB time=00:02:35.37 bitrate= 128.0kbits/s speed=   1x elapsed=0:02:35.21    size=    2436KiB time=00:02:35.87 bitrate= 128.0kbits/s speed=   1x elapsed=0:02:35.72    size=    2444KiB time=00:02:36.40 bitrate= 128.0kbits/s speed=   1x elapsed=0:02:36.24    size=    2451KiB time=00:02:36.88 bitrate= 128.0kbits/s speed=   1x elapsed=0:02:36.76    size=    2459KiB time=00:02:37.39 bitrate= 128.0kbits/s speed=   1x elapsed=0:02:37.27    size=    2467KiB time=00:02:37.88 bitrate= 128.0kbits/s speed=   1x elapsed=0:02:37.79    size=    2475KiB time=00:02:38.39 bitrate= 128.0kbits/s speed=   1x elapsed=0:02:38.30    size=    2482KiB time=00:02:38.88 bitrate= 128.0kbits/s speed=   1x elapsed=0:02:38.82    size=    2490KiB time=00:02:39.37 bitrate= 128.0kbits/s speed=   1x elapsed=0:02:39.33    size=    2498KiB time=00:02:39.91 bitrate= 128.0kbits/s speed=   1x elapsed=0:02:39.85    size=    2506KiB time=00:02:40.39 bitrate= 128.0kbits/s speed=   1x elapsed=0:02:40.36    size=    2514KiB time=00:02:40.90 bitrate= 128.0kbits/s speed=   1x elapsed=0:02:40.88    size=    2522KiB time=00:02:41.40 bitrate= 128.0kbits/s speed=   1x elapsed=0:02:41.40    size=    2529KiB time=00:02:41.88 bitrate= 128.0kbits/s speed=   1x elapsed=0:02:41.91    size=    2537KiB time=00:02:42.38 bitrate= 128.0kbits/s speed=   1x elapsed=0:02:42.43    size=    2545KiB time=00:02:42.89 bitrate= 128.0kbits/s speed=   1x elapsed=0:02:42.94    size=    2553KiB time=00:02:43.37 bitrate= 128.0kbits/s speed=0.999x elapsed=0:02:43.46    size=    2561KiB time=00:02:43.88 bitrate= 128.0kbits/s speed=0.999x elapsed=0:02:43.98    size=    2569KiB time=00:02:44.38 bitrate= 128.0kbits/s speed=0.999x elapsed=0:02:44.49    size=    2584KiB time=00:02:45.38 bitrate= 128.0kbits/s speed=   1x elapsed=0:02:45.01    size=    2592KiB time=00:02:45.87 bitrate= 128.0kbits/s speed=   1x elapsed=0:02:45.52    size=    2600KiB time=00:02:46.37 bitrate= 128.0kbits/s speed=   1x elapsed=0:02:46.04    size=    2607KiB time=00:02:46.86 bitrate= 128.0kbits/s speed=   1x elapsed=0:02:46.55    size=    2616KiB time=00:02:47.39 bitrate= 128.0kbits/s speed=   1x elapsed=0:02:47.07    size=    2623KiB time=00:02:47.88 bitrate= 128.0kbits/s speed=   1x elapsed=0:02:47.58    size=    2631KiB time=00:02:48.38 bitrate= 128.0kbits/s speed=   1x elapsed=0:02:48.10    size=    2639KiB time=00:02:48.88 bitrate= 128.0kbits/s speed=   1x elapsed=0:02:48.61    size=    2647KiB time=00:02:49.38 bitrate= 128.0kbits/s speed=   1x elapsed=0:02:49.13    size=    2654KiB time=00:02:49.87 bitrate= 128.0kbits/s speed=   1x elapsed=0:02:49.65    size=    2662KiB time=00:02:50.36 bitrate= 128.0kbits/s speed=   1x elapsed=0:02:50.16    size=    2670KiB time=00:02:50.89 bitrate= 128.0kbits/s speed=   1x elapsed=0:02:50.68    size=    2678KiB time=00:02:51.40 bitrate= 128.0kbits/s speed=   1x elapsed=0:02:51.19    size=    2686KiB time=00:02:51.88 bitrate= 128.0kbits/s speed=   1x elapsed=0:02:51.71    size=    2694KiB time=00:02:52.38 bitrate= 128.0kbits/s speed=   1x elapsed=0:02:52.22    size=    2701KiB time=00:02:52.89 bitrate= 128.0kbits/s speed=   1x elapsed=0:02:52.74    size=    2709KiB time=00:02:53.37 bitrate= 128.0kbits/s speed=   1x elapsed=0:02:53.25    size=    2717KiB time=00:02:53.88 bitrate= 128.0kbits/s speed=   1x elapsed=0:02:53.77    size=    2725KiB time=00:02:54.41 bitrate= 128.0kbits/s speed=   1x elapsed=0:02:54.29    size=    2733KiB time=00:02:54.89 bitrate= 128.0kbits/s speed=   1x elapsed=0:02:54.80    size=    2740KiB time=00:02:55.38 bitrate= 128.0kbits/s speed=   1x elapsed=0:02:55.32    size=    2748KiB time=00:02:55.88 bitrate= 128.0kbits/s speed=   1x elapsed=0:02:55.83    size=    2756KiB time=00:02:56.38 bitrate= 128.0kbits/s speed=   1x elapsed=0:02:56.35    size=    2764KiB time=00:02:56.87 bitrate= 128.0kbits/s speed=   1x elapsed=0:02:56.87    size=    2771KiB time=00:02:57.36 bitrate= 128.0kbits/s speed=   1x elapsed=0:02:57.38    size=    2780KiB time=00:02:57.89 bitrate= 128.0kbits/s speed=   1x elapsed=0:02:57.90    size=    2787KiB time=00:02:58.39 bitrate= 128.0kbits/s speed=   1x elapsed=0:02:58.41    size=    2795KiB time=00:02:58.88 bitrate= 128.0kbits/s speed=   1x elapsed=0:02:58.93    size=    2803KiB time=00:02:59.38 bitrate= 128.0kbits/s speed=   1x elapsed=0:02:59.44    size=    2811KiB time=00:02:59.88 bitrate= 128.0kbits/s speed=   1x elapsed=0:02:59.96    size=    2818KiB time=00:03:00.39 bitrate= 128.0kbits/s speed=   1x elapsed=0:03:00.47    size=    2826KiB time=00:03:00.89 bitrate= 128.0kbits/s speed=0.999x elapsed=0:03:00.99    size=    2839KiB time=00:03:01.70 bitrate= 128.0kbits/s speed=   1x elapsed=0:03:01.50    size=    2850KiB time=00:03:02.39 bitrate= 128.0kbits/s speed=   1x elapsed=0:03:02.02    size=    2858KiB time=00:03:02.87 bitrate= 128.0kbits/s speed=   1x elapsed=0:03:02.54    size=    2865KiB time=00:03:03.38 bitrate= 128.0kbits/s speed=   1x elapsed=0:03:03.05    size=    2873KiB time=00:03:03.87 bitrate= 128.0kbits/s speed=   1x elapsed=0:03:03.57    size=    2881KiB time=00:03:04.37 bitrate= 128.0kbits/s speed=   1x elapsed=0:03:04.08    size=    2889KiB time=00:03:04.89 bitrate= 128.0kbits/s speed=   1x elapsed=0:03:04.60    size=    2897KiB time=00:03:05.39 bitrate= 128.0kbits/s speed=   1x elapsed=0:03:05.11    size=    2905KiB time=00:03:05.90 bitrate= 128.0kbits/s speed=   1x elapsed=0:03:05.63    size=    2912KiB time=00:03:06.38 bitrate= 128.0kbits/s speed=   1x elapsed=0:03:06.15    size=    2920KiB time=00:03:06.90 bitrate= 128.0kbits/s speed=   1x elapsed=0:03:06.66    size=    2928KiB time=00:03:07.39 bitrate= 128.0kbits/s speed=   1x elapsed=0:03:07.18    size=    2936KiB time=00:03:07.87 bitrate= 128.0kbits/s speed=   1x elapsed=0:03:07.69    size=    2944KiB time=00:03:08.39 bitrate= 128.0kbits/s speed=   1x elapsed=0:03:08.21    size=    2951KiB time=00:03:08.90 bitrate= 128.0kbits/s speed=   1x elapsed=0:03:08.72    size=    2959KiB time=00:03:09.40 bitrate= 128.0kbits/s speed=   1x elapsed=0:03:09.24    size=    2967KiB time=00:03:09.88 bitrate= 128.0kbits/s speed=   1x elapsed=0:03:09.76    size=    2975KiB time=00:03:10.40 bitrate= 128.0kbits/s speed=   1x elapsed=0:03:10.27    size=    2982KiB time=00:03:10.87 bitrate= 128.0kbits/s speed=   1x elapsed=0:03:10.79    size=    2990KiB time=00:03:11.37 bitrate= 128.0kbits/s speed=   1x elapsed=0:03:11.30    size=    2998KiB time=00:03:11.91 bitrate= 128.0kbits/s speed=   1x elapsed=0:03:11.82    size=    3006KiB time=00:03:12.38 bitrate= 128.0kbits/s speed=   1x elapsed=0:03:12.33    size=    3014KiB time=00:03:12.90 bitrate= 128.0kbits/s speed=   1x elapsed=0:03:12.85    size=    3022KiB time=00:03:13.38 bitrate= 128.0kbits/s speed=   1x elapsed=0:03:13.36    size=    3029KiB time=00:03:13.90 bitrate= 128.0kbits/s speed=   1x elapsed=0:03:13.88    size=    3037KiB time=00:03:14.38 bitrate= 128.0kbits/s speed=   1x elapsed=0:03:14.40    size=    3045KiB time=00:03:14.88 bitrate= 128.0kbits/s speed=   1x elapsed=0:03:14.91    size=    3053KiB time=00:03:15.39 bitrate= 128.0kbits/s speed=   1x elapsed=0:03:15.43    size=    3061KiB time=00:03:15.89 bitrate= 128.0kbits/s speed=   1x elapsed=0:03:15.94    size=    3069KiB time=00:03:16.39 bitrate= 128.0kbits/s speed=   1x elapsed=0:03:16.46    size=    3076KiB time=00:03:16.90 bitrate= 128.0kbits/s speed=   1x elapsed=0:03:16.97    size=    3084KiB time=00:03:17.38 bitrate= 128.0kbits/s speed=0.999x elapsed=0:03:17.49    size=    3095KiB time=00:03:18.06 bitrate= 128.0kbits/s speed=   1x elapsed=0:03:18.00    size=    3107KiB time=00:03:18.86 bitrate= 128.0kbits/s speed=   1x elapsed=0:03:18.52    size=    3114KiB time=00:03:19.28 bitrate= 128.0kbits/s speed=   1x elapsed=0:03:19.04    size=    3123KiB time=00:03:19.90 bitrate= 128.0kbits/s speed=   1x elapsed=0:03:19.55    size=    3131KiB time=00:03:20.40 bitrate= 128.0kbits/s speed=   1x elapsed=0:03:20.07    size=    3139KiB time=00:03:20.89 bitrate= 128.0kbits/s speed=   1x elapsed=0:03:20.58    size=    3147KiB time=00:03:21.38 bitrate= 128.0kbits/s speed=   1x elapsed=0:03:21.10    size=    3154KiB time=00:03:21.87 bitrate= 128.0kbits/s speed=   1x elapsed=0:03:21.62    size=    3162KiB time=00:03:22.37 bitrate= 128.0kbits/s speed=   1x elapsed=0:03:22.13    size=    3170KiB time=00:03:22.89 bitrate= 128.0kbits/s speed=   1x elapsed=0:03:22.64    size=    3178KiB time=00:03:23.39 bitrate= 128.0kbits/s speed=   1x elapsed=0:03:23.16    size=    3186KiB time=00:03:23.90 bitrate= 128.0kbits/s speed=   1x elapsed=0:03:23.68    size=    3194KiB time=00:03:24.38 bitrate= 128.0kbits/s speed=   1x elapsed=0:03:24.19    size=    3201KiB time=00:03:24.91 bitrate= 128.0kbits/s speed=   1x elapsed=0:03:24.71    size=    3209KiB time=00:03:25.39 bitrate= 128.0kbits/s speed=   1x elapsed=0:03:25.22    size=    3217KiB time=00:03:25.87 bitrate= 128.0kbits/s speed=   1x elapsed=0:03:25.74    size=    3225KiB time=00:03:26.39 bitrate= 128.0kbits/s speed=   1x elapsed=0:03:26.25    size=    3233KiB time=00:03:26.89 bitrate= 128.0kbits/s speed=   1x elapsed=0:03:26.77    size=    3240KiB time=00:03:27.38 bitrate= 128.0kbits/s speed=   1x elapsed=0:03:27.29    size=    3248KiB time=00:03:27.88 bitrate= 128.0kbits/s speed=   1x elapsed=0:03:27.80    size=    3256KiB time=00:03:28.39 bitrate= 128.0kbits/s speed=   1x elapsed=0:03:28.32    size=    3264KiB time=00:03:28.89 bitrate= 128.0kbits/s speed=   1x elapsed=0:03:28.83    size=    3271KiB time=00:03:29.37 bitrate= 128.0kbits/s speed=   1x elapsed=0:03:29.35    size=    3280KiB time=00:03:29.89 bitrate= 128.0kbits/s speed=   1x elapsed=0:03:29.87    size=    3287KiB time=00:03:30.40 bitrate= 128.0kbits/s speed=   1x elapsed=0:03:30.38    size=    3295KiB time=00:03:30.90 bitrate= 128.0kbits/s speed=   1x elapsed=0:03:30.90    size=    3303KiB time=00:03:31.38 bitrate= 128.0kbits/s speed=   1x elapsed=0:03:31.41    size=    3311KiB time=00:03:31.89 bitrate= 128.0kbits/s speed=   1x elapsed=0:03:31.93    size=    3318KiB time=00:03:32.37 bitrate= 128.0kbits/s speed=   1x elapsed=0:03:32.46    size=    3326KiB time=00:03:32.90 bitrate= 128.0kbits/s speed=   1x elapsed=0:03:32.97    size=    3334KiB time=00:03:33.39 bitrate= 128.0kbits/s speed=   1x elapsed=0:03:33.49    size=    3342KiB time=00:03:33.89 bitrate= 128.0kbits/s speed=0.999x elapsed=0:03:34.00    size=    3358KiB time=00:03:34.87 bitrate= 128.0kbits/s speed=   1x elapsed=0:03:34.52    size=    3365KiB time=00:03:35.39 bitrate= 128.0kbits/s speed=   1x elapsed=0:03:35.04    size=    3373KiB time=00:03:35.87 bitrate= 128.0kbits/s speed=   1x elapsed=0:03:35.55    size=    3381KiB time=00:03:36.37 bitrate= 128.0kbits/s speed=   1x elapsed=0:03:36.07    size=    3389KiB time=00:03:36.89 bitrate= 128.0kbits/s speed=   1x elapsed=0:03:36.58    size=    3397KiB time=00:03:37.38 bitrate= 128.0kbits/s speed=   1x elapsed=0:03:37.10    size=    3405KiB time=00:03:37.89 bitrate= 128.0kbits/s speed=   1x elapsed=0:03:37.61    size=    3412KiB time=00:03:38.38 bitrate= 128.0kbits/s speed=   1x elapsed=0:03:38.13    size=    3420KiB time=00:03:38.89 bitrate= 128.0kbits/s speed=   1x elapsed=0:03:38.65    size=    3428KiB time=00:03:39.38 bitrate= 128.0kbits/s speed=   1x elapsed=0:03:39.16    size=    3436KiB time=00:03:39.89 bitrate= 128.0kbits/s speed=   1x elapsed=0:03:39.68    size=    3444KiB time=00:03:40.39 bitrate= 128.0kbits/s speed=   1x elapsed=0:03:40.19    size=    3451KiB time=00:03:40.89 bitrate= 128.0kbits/s speed=   1x elapsed=0:03:40.71    size=    3459KiB time=00:03:41.39 bitrate= 128.0kbits/s speed=   1x elapsed=0:03:41.22    size=    3467KiB time=00:03:41.90 bitrate= 128.0kbits/s speed=   1x elapsed=0:03:41.74    size=    3475KiB time=00:03:42.38 bitrate= 128.0kbits/s speed=   1x elapsed=0:03:42.25    size=    3482KiB time=00:03:42.89 bitrate= 128.0kbits/s speed=   1x elapsed=0:03:42.77    size=    3490KiB time=00:03:43.37 bitrate= 128.0kbits/s speed=   1x elapsed=0:03:43.29    size=    3498KiB time=00:03:43.89 bitrate= 128.0kbits/s speed=   1x elapsed=0:03:43.80    size=    3506KiB time=00:03:44.39 bitrate= 128.0kbits/s speed=   1x elapsed=0:03:44.32    size=    3514KiB time=00:03:44.90 bitrate= 128.0kbits/s speed=   1x elapsed=0:03:44.83    size=    3522KiB time=00:03:45.38 bitrate= 128.0kbits/s speed=   1x elapsed=0:03:45.35    size=    3529KiB time=00:03:45.88 bitrate= 128.0kbits/s speed=   1x elapsed=0:03:45.86    size=    3537KiB time=00:03:46.37 bitrate= 128.0kbits/s speed=   1x elapsed=0:03:46.38    size=    3545KiB time=00:03:46.87 bitrate= 128.0kbits/s speed=   1x elapsed=0:03:46.90    size=    3553KiB time=00:03:47.38 bitrate= 128.0kbits/s speed=   1x elapsed=0:03:47.41    size=    3561KiB time=00:03:47.89 bitrate= 128.0kbits/s speed=   1x elapsed=0:03:47.93    size=    3569KiB time=00:03:48.39 bitrate= 128.0kbits/s speed=   1x elapsed=0:03:48.44    size=    3576KiB time=00:03:48.88 bitrate= 128.0kbits/s speed=   1x elapsed=0:03:48.96    size=    3584KiB time=00:03:49.38 bitrate= 128.0kbits/s speed=   1x elapsed=0:03:49.47    size=    3592KiB time=00:03:49.87 bitrate= 128.0kbits/s speed=0.999x elapsed=0:03:49.99    size=    3607KiB time=00:03:50.86 bitrate= 128.0kbits/s speed=   1x elapsed=0:03:50.50    size=    3609KiB time=00:03:50.99 bitrate= 128.0kbits/s speed=   1x elapsed=0:03:51.02    size=    3623KiB time=00:03:51.90 bitrate= 128.0kbits/s speed=   1x elapsed=0:03:51.54    size=    3631KiB time=00:03:52.38 bitrate= 128.0kbits/s speed=   1x elapsed=0:03:52.05    size=    3639KiB time=00:03:52.88 bitrate= 128.0kbits/s speed=   1x elapsed=0:03:52.57    size=    3647KiB time=00:03:53.38 bitrate= 128.0kbits/s speed=   1x elapsed=0:03:53.08    size=    3654KiB time=00:03:53.87 bitrate= 128.0kbits/s speed=   1x elapsed=0:03:53.60    size=    3662KiB time=00:03:54.37 bitrate= 128.0kbits/s speed=   1x elapsed=0:03:54.11    size=    3670KiB time=00:03:54.89 bitrate= 128.0kbits/s speed=   1x elapsed=0:03:54.63    size=    3678KiB time=00:03:55.40 bitrate= 128.0kbits/s speed=   1x elapsed=0:03:55.15    size=    3686KiB time=00:03:55.88 bitrate= 128.0kbits/s speed=   1x elapsed=0:03:55.66    size=    3694KiB time=00:03:56.40 bitrate= 128.0kbits/s speed=   1x elapsed=0:03:56.18    size=    3701KiB time=00:03:56.87 bitrate= 128.0kbits/s speed=   1x elapsed=0:03:56.69    size=    3709KiB time=00:03:57.39 bitrate= 128.0kbits/s speed=   1x elapsed=0:03:57.21    size=    3717KiB time=00:03:57.89 bitrate= 128.0kbits/s speed=   1x elapsed=0:03:57.72    size=    3725KiB time=00:03:58.41 bitrate= 128.0kbits/s speed=   1x elapsed=0:03:58.24    size=    3733KiB time=00:03:58.88 bitrate= 128.0kbits/s speed=   1x elapsed=0:03:58.75    size=    3740KiB time=00:03:59.39 bitrate= 128.0kbits/s speed=   1x elapsed=0:03:59.27    size=    3748KiB time=00:03:59.88 bitrate= 128.0kbits/s speed=   1x elapsed=0:03:59.79    size=    3756KiB time=00:04:00.38 bitrate= 128.0kbits/s speed=   1x elapsed=0:04:00.30    size=    3764KiB time=00:04:00.89 bitrate= 128.0kbits/s speed=   1x elapsed=0:04:00.82    size=    3771KiB time=00:04:01.37 bitrate= 128.0kbits/s speed=   1x elapsed=0:04:01.33    size=    3780KiB time=00:04:01.91 bitrate= 128.0kbits/s speed=   1x elapsed=0:04:01.85    size=    3787KiB time=00:04:02.41 bitrate= 128.0kbits/s speed=   1x elapsed=0:04:02.36    size=    3795KiB time=00:04:02.89 bitrate= 128.0kbits/s speed=   1x elapsed=0:04:02.88    size=    3803KiB time=00:04:03.41 bitrate= 128.0kbits/s speed=   1x elapsed=0:04:03.40    [libmp3lame @ 000001feca5ded00] Queue input is backward in time
[mp3 @ 000001feca5dae80] Application provided invalid, non monotonically increasing dts to muxer in stream 0: 10739035 >= 10738978
size=    3811KiB time=00:04:03.87 bitrate= 128.0kbits/s speed=   1x elapsed=0:04:03.91    size=    3818KiB time=00:04:04.39 bitrate= 128.0kbits/s speed=   1x elapsed=0:04:04.43    size=    3826KiB time=00:04:04.87 bitrate= 128.0kbits/s speed=   1x elapsed=0:04:04.94    size=    3834KiB time=00:04:05.39 bitrate= 128.0kbits/s speed=   1x elapsed=0:04:05.46    size=    3842KiB time=00:04:05.89 bitrate= 128.0kbits/s speed=   1x elapsed=0:04:05.97    size=    3850KiB time=00:04:06.39 bitrate= 128.0kbits/s speed=   1x elapsed=0:04:06.49    size=    3861KiB time=00:04:07.09 bitrate= 128.0kbits/s speed=   1x elapsed=0:04:07.01    size=    3873KiB time=00:04:07.87 bitrate= 128.0kbits/s speed=   1x elapsed=0:04:07.52    size=    3881KiB time=00:04:08.39 bitrate= 128.0kbits/s speed=   1x elapsed=0:04:08.04    size=    3889KiB time=00:04:08.89 bitrate= 128.0kbits/s speed=   1x elapsed=0:04:08.55    size=    3897KiB time=00:04:09.39 bitrate= 128.0kbits/s speed=   1x elapsed=0:04:09.07    size=    3905KiB time=00:04:09.89 bitrate= 128.0kbits/s speed=   1x elapsed=0:04:09.58    size=    3912KiB time=00:04:10.38 bitrate= 128.0kbits/s speed=   1x elapsed=0:04:10.10    size=    3920KiB time=00:04:10.87 bitrate= 128.0kbits/s speed=   1x elapsed=0:04:10.61    size=    3928KiB time=00:04:11.38 bitrate= 128.0kbits/s speed=   1x elapsed=0:04:11.13    size=    3936KiB time=00:04:11.88 bitrate= 128.0kbits/s speed=   1x elapsed=0:04:11.65    size=    3944KiB time=00:04:12.39 bitrate= 128.0kbits/s speed=   1x elapsed=0:04:12.16    size=    3951KiB time=00:04:12.91 bitrate= 128.0kbits/s speed=   1x elapsed=0:04:12.68    size=    3959KiB time=00:04:13.39 bitrate= 128.0kbits/s speed=   1x elapsed=0:04:13.19    size=    3967KiB time=00:04:13.88 bitrate= 128.0kbits/s speed=   1x elapsed=0:04:13.71    size=    3975KiB time=00:04:14.38 bitrate= 128.0kbits/s speed=   1x elapsed=0:04:14.22    size=    3982KiB time=00:04:14.87 bitrate= 128.0kbits/s speed=   1x elapsed=0:04:14.74    size=    3990KiB time=00:04:15.39 bitrate= 128.0kbits/s speed=   1x elapsed=0:04:15.25    size=    3998KiB time=00:04:15.89 bitrate= 128.0kbits/s speed=   1x elapsed=0:04:15.77    size=    4006KiB time=00:04:16.39 bitrate= 128.0kbits/s speed=   1x elapsed=0:04:16.29    size=    4014KiB time=00:04:16.88 bitrate= 128.0kbits/s speed=   1x elapsed=0:04:16.80    size=    4022KiB time=00:04:17.39 bitrate= 128.0kbits/s speed=   1x elapsed=0:04:17.32    size=    4029KiB time=00:04:17.88 bitrate= 128.0kbits/s speed=   1x elapsed=0:04:17.83    size=    4037KiB time=00:04:18.38 bitrate= 128.0kbits/s speed=   1x elapsed=0:04:18.35    size=    4045KiB time=00:04:18.87 bitrate= 128.0kbits/s speed=   1x elapsed=0:04:18.86    size=    4053KiB time=00:04:19.37 bitrate= 128.0kbits/s speed=   1x elapsed=0:04:19.38    size=    4061KiB time=00:04:19.89 bitrate= 128.0kbits/s speed=   1x elapsed=0:04:19.90    size=    4069KiB time=00:04:20.39 bitrate= 128.0kbits/s speed=   1x elapsed=0:04:20.41    size=    4076KiB time=00:04:20.90 bitrate= 128.0kbits/s speed=   1x elapsed=0:04:20.93    size=    4084KiB time=00:04:21.38 bitrate= 128.0kbits/s speed=   1x elapsed=0:04:21.44    size=    4092KiB time=00:04:21.87 bitrate= 128.0kbits/s speed=   1x elapsed=0:04:21.96    size=    4100KiB time=00:04:22.39 bitrate= 128.0kbits/s speed=   1x elapsed=0:04:22.47    size=    4107KiB time=00:04:22.87 bitrate= 128.0kbits/s speed=   1x elapsed=0:04:22.99    size=    4123KiB time=00:04:23.89 bitrate= 128.0kbits/s speed=   1x elapsed=0:04:23.51    size=    4131KiB time=00:04:24.39 bitrate= 128.0kbits/s speed=   1x elapsed=0:04:24.02    size=    4139KiB time=00:04:24.88 bitrate= 128.0kbits/s speed=   1x elapsed=0:04:24.54    size=    4147KiB time=00:04:25.39 bitrate= 128.0kbits/s speed=   1x elapsed=0:04:25.05    size=    4154KiB time=00:04:25.87 bitrate= 128.0kbits/s speed=   1x elapsed=0:04:25.57    size=    4162KiB time=00:04:26.37 bitrate= 128.0kbits/s speed=   1x elapsed=0:04:26.08    size=    4170KiB time=00:04:26.89 bitrate= 128.0kbits/s speed=   1x elapsed=0:04:26.60    size=    4178KiB time=00:04:27.39 bitrate= 128.0kbits/s speed=   1x elapsed=0:04:27.11    size=    4186KiB time=00:04:27.88 bitrate= 128.0kbits/s speed=   1x elapsed=0:04:27.63    size=    4194KiB time=00:04:28.38 bitrate= 128.0kbits/s speed=   1x elapsed=0:04:28.15    size=    4201KiB time=00:04:28.87 bitrate= 128.0kbits/s speed=   1x elapsed=0:04:28.66    size=    4209KiB time=00:04:29.37 bitrate= 128.0kbits/s speed=   1x elapsed=0:04:29.18    size=    4217KiB time=00:04:29.86 bitrate= 128.0kbits/s speed=   1x elapsed=0:04:29.69    size=    4225KiB time=00:04:30.39 bitrate= 128.0kbits/s speed=   1x elapsed=0:04:30.21    size=    4233KiB time=00:04:30.88 bitrate= 128.0kbits/s speed=   1x elapsed=0:04:30.72    size=    4240KiB time=00:04:31.38 bitrate= 128.0kbits/s speed=   1x elapsed=0:04:31.24    size=    4248KiB time=00:04:31.88 bitrate= 128.0kbits/s speed=   1x elapsed=0:04:31.76    size=    4256KiB time=00:04:32.38 bitrate= 128.0kbits/s speed=   1x elapsed=0:04:32.27    size=    4264KiB time=00:04:32.88 bitrate= 128.0kbits/s speed=   1x elapsed=0:04:32.79    size=    4271KiB time=00:04:33.37 bitrate= 128.0kbits/s speed=   1x elapsed=0:04:33.30    size=    4280KiB time=00:04:33.91 bitrate= 128.0kbits/s speed=   1x elapsed=0:04:33.82    size=    4287KiB time=00:04:34.38 bitrate= 128.0kbits/s speed=   1x elapsed=0:04:34.33    size=    4295KiB time=00:04:34.88 bitrate= 128.0kbits/s speed=   1x elapsed=0:04:34.85    size=    4303KiB time=00:04:35.39 bitrate= 128.0kbits/s speed=   1x elapsed=0:04:35.36    size=    4311KiB time=00:04:35.89 bitrate= 128.0kbits/s speed=   1x elapsed=0:04:35.88    size=    4318KiB time=00:04:36.37 bitrate= 128.0kbits/s speed=   1x elapsed=0:04:36.40    size=    4326KiB time=00:04:36.87 bitrate= 128.0kbits/s speed=   1x elapsed=0:04:36.91    size=    4334KiB time=00:04:37.40 bitrate= 128.0kbits/s speed=   1x elapsed=0:04:37.43    size=    4342KiB time=00:04:37.89 bitrate= 128.0kbits/s speed=   1x elapsed=0:04:37.94    size=    4350KiB time=00:04:38.39 bitrate= 128.0kbits/s speed=   1x elapsed=0:04:38.46    size=    4358KiB time=00:04:38.90 bitrate= 128.0kbits/s speed=   1x elapsed=0:04:38.97    size=    4365KiB time=00:04:39.38 bitrate= 128.0kbits/s speed=   1x elapsed=0:04:39.49    size=    4381KiB time=00:04:40.37 bitrate= 128.0kbits/s speed=   1x elapsed=0:04:40.00    size=    4389KiB time=00:04:40.89 bitrate= 128.0kbits/s speed=   1x elapsed=0:04:40.52    size=    4397KiB time=00:04:41.39 bitrate= 128.0kbits/s speed=   1x elapsed=0:04:41.04    size=    4405KiB time=00:04:41.90 bitrate= 128.0kbits/s speed=   1x elapsed=0:04:41.55    [aost#0:0/libmp3lame @ 000001feca5de740] Error submitting a packet to the muxer: Invalid argument
    Last message repeated 1 times
[out#0/mp3 @ 000001feca56c000] Error muxing a packet
[out#0/mp3 @ 000001feca56c000] Task finished with error code: -22 (Invalid argument)
[out#0/mp3 @ 000001feca56c000] Terminating thread with return code -22 (Invalid argument)
[out#0/mp3 @ 000001feca56c000] Error writing trailer: Invalid argument
[out#0/mp3 @ 000001feca56c000] Error closing file: Invalid argument
[out#0/mp3 @ 000001feca56c000] video:0KiB audio:4405KiB subtitle:0KiB other streams:0KiB global headers:0KiB muxing overhead: unknown
size=    4405KiB time=00:04:41.93 bitrate= 128.0kbits/s speed=0.998x elapsed=0:04:42.50    
Conversion failed!
